<?xml version="1.0" encoding="UTF-8"?>
<svg width="15px" height="15px" viewBox="0 0 15 15" version="1.1" xmlns="http://www.w3.org/2000/svg" xmlns:xlink="http://www.w3.org/1999/xlink">
    <!-- Generator: Sketch 55.2 (78181) - https://sketchapp.com -->
    <title>shanchudel@3x</title>
    <desc>Created with Sketch.</desc>
    <defs>
        <polygon id="path-1" points="0.0012345679 0.016890411 14.9831276 0.016890411 14.9831276 14.9794932 0.0012345679 14.9794932"></polygon>
    </defs>
    <g id="页面1" stroke="none" stroke-width="1" fill="none" fill-rule="evenodd">
        <g id="搜索修改-二级" transform="translate(-343.000000, -104.000000)">
            <g id="shanchudel" transform="translate(343.000000, 104.000000)">
                <mask id="mask-2" fill="white">
                    <use xlink:href="#path-1"></use>
                </mask>
                <g id="Clip-2"></g>
                <path d="M12.4078807,4.69267808 C12.1737654,4.69267808 11.9396296,4.87968493 11.9396296,5.16030822 L11.9396296,12.9688356 C11.9396296,13.5766849 11.4245679,14.0910411 10.8158848,14.0910411 L4.16713992,14.0910411 C3.55845679,14.0910411 3.04341564,13.5766849 3.04341564,12.9688356 L3.04341564,5.16030822 C3.04341564,4.92649315 2.85615226,4.69267808 2.57522634,4.69267808 C2.29432099,4.69267808 2.10695473,4.92649315 2.10695473,5.16030822 L2.10695473,13.2026507 C2.10695473,14.1845342 2.90300412,14.9794932 3.88623457,14.9794932 L11.096893,14.9794932 C12.0801235,14.9794932 12.87607,14.1845342 12.87607,13.2026507 L12.87607,5.16030822 C12.87607,4.92649315 12.6419342,4.69267808 12.4078807,4.69267808 Z" id="Fill-1" fill="#552E20" mask="url(#mask-2)"></path>
                <path d="M9.17711934,11.753137 C8.89619342,11.753137 8.70893004,11.5661301 8.70893004,11.285589 L8.70893004,5.2070137 C8.70893004,4.92649315 8.89619342,4.73946575 9.17711934,4.73946575 C9.458107,4.73946575 9.64539095,4.92649315 9.64539095,5.2070137 L9.64539095,11.285589 C9.64539095,11.5661301 9.41125514,11.753137 9.17711934,11.753137 Z M5.80592593,11.753137 C5.52502058,11.753137 5.33773663,11.5661301 5.33773663,11.285589 L5.33773663,5.2070137 C5.33773663,4.92649315 5.52502058,4.73946575 5.80592593,4.73946575 C6.08683128,4.73946575 6.27419753,4.92649315 6.27419753,5.2070137 L6.27419753,11.285589 C6.27419753,11.5661301 6.04006173,11.753137 5.80592593,11.753137 Z M14.514856,2.82240411 L11.7523457,2.82240411 L11.7523457,1.32610274 C11.7523457,0.578034247 11.1436626,0.016890411 10.4413374,0.016890411 L4.54176955,0.016890411 C3.79259259,0.016890411 3.23069959,0.624739726 3.23069959,1.32610274 L3.23069959,2.82240411 L0.4681893,2.82240411 C0.187283951,2.82240411 0,3.00943151 0,3.28995205 C0,3.57049315 0.187283951,3.7575 0.4681893,3.7575 L14.514856,3.7575 C14.7957613,3.7575 14.9831276,3.57049315 14.9831276,3.28995205 C14.9831276,3.00943151 14.7489918,2.82240411 14.514856,2.82240411 Z M4.16713992,2.82240411 L4.16713992,1.51313014 C4.16713992,1.18588356 4.40127572,0.952068493 4.7290535,0.952068493 L10.2540741,0.952068493 C10.5818313,0.952068493 10.8158848,1.18588356 10.8158848,1.51313014 L10.8158848,2.82240411 L4.16713992,2.82240411 Z" id="Fill-3" fill="#552E20" mask="url(#mask-2)"></path>
            </g>
        </g>
    </g>
</svg>