<?xml version="1.0" encoding="UTF-8"?>
<svg width="10px" height="13px" viewBox="0 0 10 13" version="1.1" xmlns="http://www.w3.org/2000/svg" xmlns:xlink="http://www.w3.org/1999/xlink">
    <!-- Generator: Sketch 55.2 (78181) - https://sketchapp.com -->
    <title>箭头2@2x</title>
    <desc>Created with Sketch.</desc>
    <g id="页面1" stroke="none" stroke-width="1" fill="none" fill-rule="evenodd">
        <g id="列表-排序选中状态" transform="translate(-351.000000, -90.000000)" fill="#999999">
            <g id="编组" transform="translate(14.000000, 87.000000)">
                <g id="shaixuan-(1)" transform="translate(337.000000, 3.000000)">
                    <path d="M8.83058753,3.26301949 C8.68551816,3.11874494 8.49287443,3.02473594 8.2881751,3.02473594 L1.81944845,3.02473594 C1.39630709,3.02473594 1.05200195,3.3815835 1.05200195,3.80240741 C1.05200195,3.99798081 1.12676006,4.19055427 1.26275701,4.33287331 C1.26293473,4.3340722 1.28669722,4.36060155 1.28359128,4.36377531 L3.48023808,6.59544486 L3.48023808,7.92389289 C3.48023808,8.17217527 3.71591529,8.27715338 3.92916191,8.27715338 C4.21196539,8.26818553 4.32890426,8.17155445 4.33757876,7.92389289 C4.33179576,8.00187147 4.33179576,7.47446259 4.33757876,6.34166626 C4.33757876,6.28962298 4.33391404,6.24066852 4.29677521,6.20346935 L1.95903158,3.92205864 C1.95300937,3.91412548 1.95454006,3.8916371 1.94673018,3.8916371 L8.17742632,3.8916371 C8.16964996,3.8916371 8.16249928,3.91433659 8.15608602,3.9229364 L5.68698692,6.19343269 C5.64993747,6.23040964 5.60306701,6.28301957 5.60306701,6.33509618 L5.60306701,6.40128359 C5.60306701,6.77493077 5.70379101,8.48203595 5.70903112,10.051923 C5.69912072,10.0430232 5.63101704,9.98322455 5.68698692,10.0280569 L5.16599921,9.57563368 C5.09163216,9.50276864 4.96614894,9.50311308 4.8923964,9.5766781 L4.62424598,9.88960443 C4.58731943,9.92635916 4.56715228,9.97710247 4.56750982,10.0280569 C4.56750982,10.0797891 4.58924118,10.1303546 4.62646939,10.1670315 L5.25563966,10.78364 C5.2644998,10.7923175 5.27427611,10.8001285 5.28466694,10.8070283 C5.4283397,10.9416142 5.5944142,11.0155792 5.79124778,11.0155792 C6.21599804,11.0155792 6.54092931,10.6732202 6.54092931,10.2523963 L6.54092931,6.59544486 L8.81446918,4.36163234 C8.82332931,4.35277699 8.82797307,4.35001737 8.83509023,4.33959538 C8.97068496,4.19736523 9.05039095,4.00501398 9.05039095,3.80970725 C9.05039095,3.60618958 8.97571278,3.40728293 8.83058753,3.26301949 Z" id="Fill-1"></path>
                </g>
            </g>
        </g>
    </g>
</svg>