<?xml version="1.0" encoding="UTF-8"?>
<svg width="15px" height="15px" viewBox="0 0 15 15" version="1.1" xmlns="http://www.w3.org/2000/svg" xmlns:xlink="http://www.w3.org/1999/xlink">
    <!-- Generator: Sketch 55.2 (78181) - https://sketchapp.com -->
    <title>sousuo</title>
    <desc>Created with Sketch.</desc>
    <g id="页面1" stroke="none" stroke-width="1" fill="none" fill-rule="evenodd">
        <g id="列表-排序" transform="translate(-127.000000, -35.000000)" fill="#9C9C9C">
            <g id="搜索" transform="translate(48.000000, 27.000000)">
                <g id="sousuo" transform="translate(79.000000, 8.000000)">
                    <path d="M7.07683773,0.0176223776 C3.1739043,0.0176223776 0,3.21816084 0,7.15384615 C0,11.0895524 3.1739043,14.2900699 7.07683773,14.2900699 C10.979792,14.2900699 14.1536755,11.0895524 14.1536755,7.15384615 C14.1536755,3.21816084 10.979792,0.0176223776 7.07683773,0.0176223776 Z M7.07683773,13.5381818 C3.58664355,13.5381818 0.745631068,10.6733287 0.745631068,7.15384615 C0.745631068,3.63436364 3.5850208,0.76951049 7.07683773,0.76951049 C10.5686546,0.76951049 13.4080444,3.63272727 13.4080444,7.15384615 C13.4080444,10.674965 10.5670319,13.5381818 7.07683773,13.5381818 Z M14.874362,14.3572028 L13.0102427,12.4775245 C12.865423,12.3314895 12.6291054,12.3314895 12.482663,12.4775245 C12.3378433,12.6234755 12.3378433,12.8617762 12.482663,13.0095315 L14.3467822,14.8892098 C14.4199931,14.963035 14.5148405,15 14.6096671,15 C14.7045978,15 14.8011304,14.963035 14.872656,14.8892098 C15.0191817,14.7415385 15.0191817,14.5048741 14.874362,14.3572028 Z" id="Fill-3"></path>
                </g>
            </g>
        </g>
    </g>
</svg>